{
  "accessors": [
    {
      "bufferView": 2,
      "componentType": 5126,
      "count": 9430,
      "max": [
        80.2138442993164,
        259.7257080078125,
        80.21383666992188
      ],
      "min": [
        -80.21383666992188,
        -0.9237468242645264,
        -80.21383666992188
      ],
      "type": "VEC3"
    },
    {
      "bufferView": 2,
      "byteOffset": 113160,
      "componentType": 5126,
      "count": 9430,
      "max": [
        1.0,
        1.0,
        1.0
      ],
      "min": [
        -1.0,
        -1.0,
        -1.0
      ],
      "type": "VEC3"
    },
    {
      "bufferView": 3,
      "componentType": 5126,
      "count": 9430,
      "max": [
        1.0,
        1.0,
        1.0,
        1.0
      ],
      "min": [
        -1.0,
        -1.0,
        -1.0,
        -1.0
      ],
      "type": "VEC4"
    },
    {
      "bufferView": 1,
      "componentType": 5126,
      "count": 9430,
      "max": [
        1.9711281061172485,
        0.9920603632926941
      ],
      "min": [
        0.004995010793209076,
        0.00499578844755888
      ],
      "type": "VEC2"
    },
    {
      "bufferView": 1,
      "byteOffset": 75440,
      "componentType": 5126,
      "count": 9430,
      "max": [
        1.9711281061172485,
        0.9920603632926941
      ],
      "min": [
        0.004995010793209076,
        0.00499578844755888
      ],
      "type": "VEC2"
    },
    {
      "bufferView": 1,
      "byteOffset": 150880,
      "componentType": 5126,
      "count": 9430,
      "max": [
        1.9711281061172485,
        0.9920603632926941
      ],
      "min": [
        0.004995010793209076,
        0.00499578844755888
      ],
      "type": "VEC2"
    },
    {
      "bufferView": 1,
      "byteOffset": 226320,
      "componentType": 5126,
      "count": 9430,
      "max": [
        1.9711281061172485,
        0.9920603632926941
      ],
      "min": [
        0.004995010793209076,
        0.00499578844755888
      ],
      "type": "VEC2"
    },
    {
      "bufferView": 0,
      "componentType": 5125,
      "count": 38217,
      "type": "SCALAR"
    },
    {
      "bufferView": 2,
      "byteOffset": 226320,
      "componentType": 5126,
      "count": 8,
      "max": [
        -48.002559661865234,
        205.89759826660156,
        16.760726928710938
      ],
      "min": [
        -48.002559661865234,
        186.08897399902344,
        -16.760726928710938
      ],
      "type": "VEC3"
    },
    {
      "bufferView": 2,
      "byteOffset": 226416,
      "componentType": 5126,
      "count": 8,
      "max": [
        -1.0,
        0.0,
        0.0
      ],
      "min": [
        -1.0,
        0.0,
        0.0
      ],
      "type": "VEC3"
    },
    {
      "bufferView": 1,
      "byteOffset": 301760,
      "componentType": 5126,
      "count": 8,
      "max": [
        1.8461334705352783,
        1.0
      ],
      "min": [
        0.0,
        0.0
      ],
      "type": "VEC2"
    },
    {
      "bufferView": 1,
      "byteOffset": 301824,
      "componentType": 5126,
      "count": 8,
      "max": [
        1.8461334705352783,
        1.0
      ],
      "min": [
        0.0,
        0.0
      ],
      "type": "VEC2"
    },
    {
      "bufferView": 0,
      "byteOffset": 152868,
      "componentType": 5125,
      "count": 12,
      "type": "SCALAR"
    }
  ],
  "asset": {
    "extras": {
      "author": "jellystuff (https://sketchfab.com/jellystuff)",
      "license": "CC-BY-4.0 (http://creativecommons.org/licenses/by/4.0/)",
      "source": "https://sketchfab.com/3d-models/sci-fi-terminal-04af7eacb07541fe848bc8a258577858",
      "title": "Sci-fi Terminal"
    },
    "generator": "Sketchfab-12.59.0",
    "version": "2.0"
  },
  "bufferViews": [
    {
      "buffer": 0,
      "byteLength": 152916,
      "name": "floatBufferViews",
      "target": 34963
    },
    {
      "buffer": 0,
      "byteLength": 301888,
      "byteOffset": 152916,
      "byteStride": 8,
      "name": "floatBufferViews",
      "target": 34962
    },
    {
      "buffer": 0,
      "byteLength": 226512,
      "byteOffset": 454804,
      "byteStride": 12,
      "name": "floatBufferViews",
      "target": 34962
    },
    {
      "buffer": 0,
      "byteLength": 150880,
      "byteOffset": 681316,
      "byteStride": 16,
      "name": "floatBufferViews",
      "target": 34962
    }
  ],
  "buffers": [
    {
      "byteLength": 832196,
      "uri": "scene.bin"
    }
  ],
  "images": [
    {
      "uri": "textures/Prop_baseColor.png"
    },
    {
      "uri": "textures/Prop_metallicRoughness.png"
    },
    {
      "uri": "textures/Prop_emissive.png"
    },
    {
      "uri": "textures/Prop_normal.png"
    },
    {
      "uri": "textures/Glass_baseColor.png"
    },
    {
      "uri": "textures/Glass_metallicRoughness.png"
    }
  ],
  "materials": [
    {
      "doubleSided": true,
      "emissiveFactor": [
        1.0,
        1.0,
        1.0
      ],
      "emissiveTexture": {
        "index": 2
      },
      "name": "Prop",
      "normalTexture": {
        "index": 3
      },
      "pbrMetallicRoughness": {
        "baseColorTexture": {
          "index": 0
        },
        "metallicRoughnessTexture": {
          "index": 1
        }
      }
    },
    {
      "alphaMode": "BLEND",
      "doubleSided": true,
      "name": "Glass",
      "pbrMetallicRoughness": {
        "baseColorFactor": [
          1.0,
          1.0,
          1.0,
          0.2509971483987864
        ],
        "baseColorTexture": {
          "index": 4
        },
        "metallicRoughnessTexture": {
          "index": 5
        }
      }
    }
  ],
  "meshes": [
    {
      "name": "Prop_Prop_0",
      "primitives": [
        {
          "attributes": {
            "NORMAL": 1,
            "POSITION": 0,
            "TANGENT": 2,
            "TEXCOORD_0": 3,
            "TEXCOORD_1": 4,
            "TEXCOORD_2": 5,
            "TEXCOORD_3": 6
          },
          "indices": 7,
          "material": 0,
          "mode": 4
        }
      ]
    },
    {
      "name": "Prop_Glass_0",
      "primitives": [
        {
          "attributes": {
            "NORMAL": 9,
            "POSITION": 8,
            "TEXCOORD_0": 10,
            "TEXCOORD_1": 11
          },
          "indices": 12,
          "material": 1,
          "mode": 4
        }
      ]
    }
  ],
  "nodes": [
    {
      "children": [
        1
      ],
      "matrix": [
        1.0,
        0.0,
        0.0,
        0.0,
        0.0,
        2.220446049250313e-16,
        -1.0,
        0.0,
        0.0,
        1.0,
        2.220446049250313e-16,
        0.0,
        0.0,
        0.0,
        0.0,
        1.0
      ],
      "name": "Sketchfab_model"
    },
    {
      "children": [
        2
      ],
      "matrix": [
        0.009999999776482582,
        0.0,
        0.0,
        0.0,
        0.0,
        0.0,
        0.009999999776482582,
        0.0,
        0.0,
        -0.009999999776482582,
        0.0,
        0.0,
        0.0,
        0.0,
        0.0,
        1.0
      ],
      "name": "7c5ad51e37f54429a0c0c3dd4d1908be.fbx"
    },
    {
      "children": [
        3
      ],
      "name": "RootNode"
    },
    {
      "children": [
        4,
        5
      ],
      "name": "Prop"
    },
    {
      "mesh": 0,
      "name": "Prop_Prop_0"
    },
    {
      "mesh": 1,
      "name": "Prop_Glass_0"
    }
  ],
  "samplers": [
    {
      "magFilter": 9729,
      "minFilter": 9987,
      "wrapS": 10497,
      "wrapT": 10497
    }
  ],
  "scene": 0,
  "scenes": [
    {
      "name": "Sketchfab_Scene",
      "nodes": [
        0
      ]
    }
  ],
  "textures": [
    {
      "sampler": 0,
      "source": 0
    },
    {
      "sampler": 0,
      "source": 1
    },
    {
      "sampler": 0,
      "source": 2
    },
    {
      "sampler": 0,
      "source": 3
    },
    {
      "sampler": 0,
      "source": 4
    },
    {
      "sampler": 0,
      "source": 5
    }
  ]
}
