{
  "accessors": [
    {
      "bufferView": 2,
      "componentType": 5126,
      "count": 834,
      "max": [
        85.07366180419922,
        68.88802337646484,
        77.71723175048828
      ],
      "min": [
        -85.07363891601563,
        -16.71929931640625,
        -75.89205932617188
      ],
      "type": "VEC3"
    },
    {
      "bufferView": 2,
      "byteOffset": 10008,
      "componentType": 5126,
      "count": 834,
      "max": [
        1.0,
        1.0,
        1.0
      ],
      "min": [
        -1.0,
        -1.0,
        -1.0
      ],
      "type": "VEC3"
    },
    {
      "bufferView": 3,
      "componentType": 5126,
      "count": 834,
      "max": [
        1.0,
        1.0,
        1.0,
        1.0
      ],
      "min": [
        -0.9296278953552246,
        -1.0,
        -0.8947996497154236,
        -1.0
      ],
      "type": "VEC4"
    },
    {
      "bufferView": 1,
      "componentType": 5126,
      "count": 834,
      "max": [
        0.7856917977333069,
        0.9909722208976746
      ],
      "min": [
        0.01687210239470005,
        0.0035710143856704235
      ],
      "type": "VEC2"
    },
    {
      "bufferView": 0,
      "componentType": 5125,
      "count": 1260,
      "type": "SCALAR"
    },
    {
      "bufferView": 2,
      "byteOffset": 20016,
      "componentType": 5126,
      "count": 7888,
      "max": [
        100.4510726928711,
        72.94639587402344,
        73.65269470214844
      ],
      "min": [
        -69.82134246826172,
        -20.77767562866211,
        -51.9591064453125
      ],
      "type": "VEC3"
    },
    {
      "bufferView": 2,
      "byteOffset": 114672,
      "componentType": 5126,
      "count": 7888,
      "max": [
        1.0,
        1.0,
        0.9999995827674866
      ],
      "min": [
        -0.96604323387146,
        -1.0,
        -0.9999995827674866
      ],
      "type": "VEC3"
    },
    {
      "bufferView": 3,
      "byteOffset": 13344,
      "componentType": 5126,
      "count": 7888,
      "max": [
        0.9998200535774231,
        0.9998296499252319,
        0.9999629855155945,
        1.0
      ],
      "min": [
        -0.996558427810669,
        -0.9998296499252319,
        -1.0,
        -1.0
      ],
      "type": "VEC4"
    },
    {
      "bufferView": 1,
      "byteOffset": 6672,
      "componentType": 5126,
      "count": 7888,
      "max": [
        0.9961133599281311,
        0.906162679195404
      ],
      "min": [
        0.2094917893409729,
        0.6506165862083435
      ],
      "type": "VEC2"
    },
    {
      "bufferView": 0,
      "byteOffset": 5040,
      "componentType": 5125,
      "count": 12048,
      "type": "SCALAR"
    },
    {
      "bufferView": 2,
      "byteOffset": 209328,
      "componentType": 5126,
      "count": 342,
      "max": [
        119.16930389404297,
        72.46990966796875,
        -30.271873474121094
      ],
      "min": [
        -119.16929626464844,
        -20.301185607910156,
        -82.825927734375
      ],
      "type": "VEC3"
    },
    {
      "bufferView": 2,
      "byteOffset": 213432,
      "componentType": 5126,
      "count": 342,
      "max": [
        1.0,
        1.0,
        1.0
      ],
      "min": [
        -1.0,
        -1.0,
        -0.0048925606533885
      ],
      "type": "VEC3"
    },
    {
      "bufferView": 3,
      "byteOffset": 139552,
      "componentType": 5126,
      "count": 342,
      "max": [
        1.0,
        1.0,
        1.0,
        1.0
      ],
      "min": [
        -1.0,
        -1.0,
        -1.0,
        -1.0
      ],
      "type": "VEC4"
    },
    {
      "bufferView": 1,
      "byteOffset": 69776,
      "componentType": 5126,
      "count": 342,
      "max": [
        0.5435471534729004,
        0.5713179111480713
      ],
      "min": [
        0.18388304114341736,
        0.1458931565284729
      ],
      "type": "VEC2"
    },
    {
      "bufferView": 0,
      "byteOffset": 53232,
      "componentType": 5125,
      "count": 552,
      "type": "SCALAR"
    },
    {
      "bufferView": 2,
      "byteOffset": 217536,
      "componentType": 5126,
      "count": 112,
      "max": [
        23.505035400390625,
        78.25309753417969,
        82.82594299316406
      ],
      "min": [
        -23.505001068115234,
        -26.084369659423828,
        55.915950775146484
      ],
      "type": "VEC3"
    },
    {
      "bufferView": 2,
      "byteOffset": 218880,
      "componentType": 5126,
      "count": 112,
      "max": [
        0.9855123162269592,
        0.9967031478881836,
        0.9747502207756042
      ],
      "min": [
        -0.9855122566223145,
        -0.996703028678894,
        -0.9747505187988281
      ],
      "type": "VEC3"
    },
    {
      "bufferView": 3,
      "byteOffset": 145024,
      "componentType": 5126,
      "count": 112,
      "max": [
        1.0,
        0.9930157661437988,
        0.4956117272377014,
        1.0
      ],
      "min": [
        -0.049817655235528946,
        -0.9930159449577332,
        -0.47875070571899414,
        -1.0
      ],
      "type": "VEC4"
    },
    {
      "bufferView": 1,
      "byteOffset": 72512,
      "componentType": 5126,
      "count": 112,
      "max": [
        0.3467869758605957,
        0.9079700112342834
      ],
      "min": [
        0.015270687639713287,
        0.6856961250305176
      ],
      "type": "VEC2"
    },
    {
      "bufferView": 0,
      "byteOffset": 55440,
      "componentType": 5125,
      "count": 168,
      "type": "SCALAR"
    },
    {
      "bufferView": 2,
      "byteOffset": 220224,
      "componentType": 5126,
      "count": 563,
      "max": [
        106.0162124633789,
        64.48260498046875,
        74.97500610351563
      ],
      "min": [
        -106.01620483398438,
        -12.313886642456055,
        -79.27226257324219
      ],
      "type": "VEC3"
    },
    {
      "bufferView": 2,
      "byteOffset": 226980,
      "componentType": 5126,
      "count": 563,
      "max": [
        1.0,
        1.0,
        1.0
      ],
      "min": [
        -1.0,
        -1.0,
        -1.0
      ],
      "type": "VEC3"
    },
    {
      "bufferView": 3,
      "byteOffset": 146816,
      "componentType": 5126,
      "count": 563,
      "max": [
        1.0,
        1.0,
        1.0,
        1.0
      ],
      "min": [
        -1.0,
        -1.0,
        -1.0,
        -1.0
      ],
      "type": "VEC4"
    },
    {
      "bufferView": 1,
      "byteOffset": 73408,
      "componentType": 5126,
      "count": 563,
      "max": [
        0.9909871220588684,
        0.986104428768158
      ],
      "min": [
        0.012482825666666031,
        0.013930780813097954
      ],
      "type": "VEC2"
    },
    {
      "bufferView": 0,
      "byteOffset": 56112,
      "componentType": 5125,
      "count": 924,
      "type": "SCALAR"
    },
    {
      "bufferView": 2,
      "byteOffset": 233736,
      "componentType": 5126,
      "count": 260,
      "max": [
        31.111473083496094,
        45.064517974853516,
        46.335113525390625
      ],
      "min": [
        -31.11144256591797,
        7.104205131530762,
        -74.73800659179688
      ],
      "type": "VEC3"
    },
    {
      "bufferView": 2,
      "byteOffset": 236856,
      "componentType": 5126,
      "count": 260,
      "max": [
        1.0,
        1.0,
        1.0
      ],
      "min": [
        -1.0,
        -1.0,
        -1.0
      ],
      "type": "VEC3"
    },
    {
      "bufferView": 3,
      "byteOffset": 155824,
      "componentType": 5126,
      "count": 260,
      "max": [
        1.0,
        1.0,
        1.0,
        1.0
      ],
      "min": [
        -2.8238287086423952e-06,
        -1.0,
        -0.7562540173530579,
        -1.0
      ],
      "type": "VEC4"
    },
    {
      "bufferView": 1,
      "byteOffset": 77912,
      "componentType": 5126,
      "count": 260,
      "max": [
        0.9510865211486816,
        0.6435569524765015
      ],
      "min": [
        0.5075502395629883,
        0.38761332631111145
      ],
      "type": "VEC2"
    },
    {
      "bufferView": 0,
      "byteOffset": 59808,
      "componentType": 5125,
      "count": 384,
      "type": "SCALAR"
    },
    {
      "bufferView": 2,
      "byteOffset": 239976,
      "componentType": 5126,
      "count": 404,
      "max": [
        78.43021392822266,
        46.664710998535156,
        51.01735305786133
      ],
      "min": [
        -78.43021392822266,
        5.50401496887207,
        -82.82594299316406
      ],
      "type": "VEC3"
    },
    {
      "bufferView": 2,
      "byteOffset": 244824,
      "componentType": 5126,
      "count": 404,
      "max": [
        1.0,
        1.0,
        1.0
      ],
      "min": [
        -1.0,
        -1.0,
        -1.0
      ],
      "type": "VEC3"
    },
    {
      "bufferView": 3,
      "byteOffset": 159984,
      "componentType": 5126,
      "count": 404,
      "max": [
        1.0,
        1.0,
        1.0,
        1.0
      ],
      "min": [
        -1.0,
        -1.0,
        -1.0,
        -1.0
      ],
      "type": "VEC4"
    },
    {
      "bufferView": 1,
      "byteOffset": 79992,
      "componentType": 5126,
      "count": 404,
      "max": [
        0.98324054479599,
        0.6823098659515381
      ],
      "min": [
        0.1232520192861557,
        0.009427763521671295
      ],
      "type": "VEC2"
    },
    {
      "bufferView": 0,
      "byteOffset": 61344,
      "componentType": 5125,
      "count": 600,
      "type": "SCALAR"
    }
  ],
  "asset": {
    "extras": {
      "author": "clearsky5201314 (https://sketchfab.com/clearsky5201314)",
      "license": "CC-BY-4.0 (http://creativecommons.org/licenses/by/4.0/)",
      "source": "https://sketchfab.com/3d-models/sci-fi-door-c6a6ef337b6c4f51ba68c2f0708c9622",
      "title": "SCI-FI Door"
    },
    "generator": "Sketchfab-12.66.0",
    "version": "2.0"
  },
  "bufferViews": [
    {
      "buffer": 0,
      "byteLength": 63744,
      "name": "floatBufferViews",
      "target": 34963
    },
    {
      "buffer": 0,
      "byteLength": 83224,
      "byteOffset": 63744,
      "byteStride": 8,
      "name": "floatBufferViews",
      "target": 34962
    },
    {
      "buffer": 0,
      "byteLength": 249672,
      "byteOffset": 146968,
      "byteStride": 12,
      "name": "floatBufferViews",
      "target": 34962
    },
    {
      "buffer": 0,
      "byteLength": 166448,
      "byteOffset": 396640,
      "byteStride": 16,
      "name": "floatBufferViews",
      "target": 34962
    }
  ],
  "buffers": [
    {
      "byteLength": 563088,
      "uri": "scene.bin"
    }
  ],
  "images": [
    {
      "uri": "textures/LOCK1_baseColor.jpeg"
    },
    {
      "uri": "textures/LOCK1_metallicRoughness.png"
    },
    {
      "uri": "textures/LOCK1_emissive.jpeg"
    },
    {
      "uri": "textures/LOCK1_normal.png"
    },
    {
      "uri": "textures/TUBE_baseColor.jpeg"
    },
    {
      "uri": "textures/TUBE_metallicRoughness.png"
    },
    {
      "uri": "textures/TUBE_normal.png"
    },
    {
      "uri": "textures/Bottom_baseColor.jpeg"
    },
    {
      "uri": "textures/Bottom_metallicRoughness.png"
    },
    {
      "uri": "textures/Bottom_normal.png"
    },
    {
      "uri": "textures/emissive_baseColor.jpeg"
    },
    {
      "uri": "textures/emissive_metallicRoughness.png"
    },
    {
      "uri": "textures/emissive_emissive.jpeg"
    },
    {
      "uri": "textures/emissive_normal.png"
    },
    {
      "uri": "textures/pillar_baseColor.png"
    },
    {
      "uri": "textures/pillar_metallicRoughness.png"
    },
    {
      "uri": "textures/pillar_emissive.jpeg"
    },
    {
      "uri": "textures/pillar_normal.png"
    },
    {
      "uri": "textures/lock02_baseColor.jpeg"
    },
    {
      "uri": "textures/lock02_metallicRoughness.png"
    },
    {
      "uri": "textures/lock02_emissive.jpeg"
    },
    {
      "uri": "textures/lock02_normal.png"
    },
    {
      "uri": "textures/DOOR_baseColor.jpeg"
    },
    {
      "uri": "textures/DOOR_metallicRoughness.png"
    },
    {
      "uri": "textures/DOOR_normal.png"
    }
  ],
  "materials": [
    {
      "doubleSided": true,
      "emissiveFactor": [
        1.0,
        1.0,
        1.0
      ],
      "emissiveTexture": {
        "index": 2
      },
      "name": "LOCK1",
      "normalTexture": {
        "index": 3
      },
      "occlusionTexture": {
        "index": 1
      },
      "pbrMetallicRoughness": {
        "baseColorTexture": {
          "index": 0
        },
        "metallicRoughnessTexture": {
          "index": 1
        }
      }
    },
    {
      "doubleSided": true,
      "name": "TUBE",
      "normalTexture": {
        "index": 6
      },
      "occlusionTexture": {
        "index": 5
      },
      "pbrMetallicRoughness": {
        "baseColorTexture": {
          "index": 4
        },
        "metallicRoughnessTexture": {
          "index": 5
        }
      }
    },
    {
      "doubleSided": true,
      "name": "Bottom",
      "normalTexture": {
        "index": 9
      },
      "occlusionTexture": {
        "index": 8
      },
      "pbrMetallicRoughness": {
        "baseColorTexture": {
          "index": 7
        },
        "metallicRoughnessTexture": {
          "index": 8
        }
      }
    },
    {
      "doubleSided": true,
      "emissiveFactor": [
        1.0,
        1.0,
        1.0
      ],
      "emissiveTexture": {
        "index": 12
      },
      "name": "emissive",
      "normalTexture": {
        "index": 13
      },
      "occlusionTexture": {
        "index": 11
      },
      "pbrMetallicRoughness": {
        "baseColorTexture": {
          "index": 10
        },
        "metallicRoughnessTexture": {
          "index": 11
        }
      }
    },
    {
      "alphaMode": "BLEND",
      "doubleSided": true,
      "emissiveFactor": [
        1.0,
        1.0,
        1.0
      ],
      "emissiveTexture": {
        "index": 16
      },
      "name": "pillar",
      "normalTexture": {
        "index": 17
      },
      "occlusionTexture": {
        "index": 15
      },
      "pbrMetallicRoughness": {
        "baseColorTexture": {
          "index": 14
        },
        "metallicRoughnessTexture": {
          "index": 15
        }
      }
    },
    {
      "doubleSided": true,
      "emissiveFactor": [
        1.0,
        1.0,
        1.0
      ],
      "emissiveTexture": {
        "index": 20
      },
      "name": "lock02",
      "normalTexture": {
        "index": 21
      },
      "occlusionTexture": {
        "index": 19
      },
      "pbrMetallicRoughness": {
        "baseColorTexture": {
          "index": 18
        },
        "metallicRoughnessTexture": {
          "index": 19
        }
      }
    },
    {
      "doubleSided": true,
      "emissiveFactor": [
        1.0,
        1.0,
        1.0
      ],
      "emissiveTexture": {
        "index": 12
      },
      "name": "DOOR",
      "normalTexture": {
        "index": 24
      },
      "occlusionTexture": {
        "index": 23
      },
      "pbrMetallicRoughness": {
        "baseColorTexture": {
          "index": 22
        },
        "metallicRoughnessTexture": {
          "index": 23
        }
      }
    }
  ],
  "meshes": [
    {
      "name": "Object008_LOCK1_0",
      "primitives": [
        {
          "attributes": {
            "NORMAL": 1,
            "POSITION": 0,
            "TANGENT": 2,
            "TEXCOORD_0": 3
          },
          "indices": 4,
          "material": 0,
          "mode": 4
        }
      ]
    },
    {
      "name": "Object008_TUBE_0",
      "primitives": [
        {
          "attributes": {
            "NORMAL": 6,
            "POSITION": 5,
            "TANGENT": 7,
            "TEXCOORD_0": 8
          },
          "indices": 9,
          "material": 1,
          "mode": 4
        }
      ]
    },
    {
      "name": "Object008_Bottom_0",
      "primitives": [
        {
          "attributes": {
            "NORMAL": 11,
            "POSITION": 10,
            "TANGENT": 12,
            "TEXCOORD_0": 13
          },
          "indices": 14,
          "material": 2,
          "mode": 4
        }
      ]
    },
    {
      "name": "Object008_emissive_0",
      "primitives": [
        {
          "attributes": {
            "NORMAL": 16,
            "POSITION": 15,
            "TANGENT": 17,
            "TEXCOORD_0": 18
          },
          "indices": 19,
          "material": 3,
          "mode": 4
        }
      ]
    },
    {
      "name": "Object008_pillar_0",
      "primitives": [
        {
          "attributes": {
            "NORMAL": 21,
            "POSITION": 20,
            "TANGENT": 22,
            "TEXCOORD_0": 23
          },
          "indices": 24,
          "material": 4,
          "mode": 4
        }
      ]
    },
    {
      "name": "Object008_lock02_0",
      "primitives": [
        {
          "attributes": {
            "NORMAL": 26,
            "POSITION": 25,
            "TANGENT": 27,
            "TEXCOORD_0": 28
          },
          "indices": 29,
          "material": 5,
          "mode": 4
        }
      ]
    },
    {
      "name": "Object008_DOOR_0",
      "primitives": [
        {
          "attributes": {
            "NORMAL": 31,
            "POSITION": 30,
            "TANGENT": 32,
            "TEXCOORD_0": 33
          },
          "indices": 34,
          "material": 6,
          "mode": 4
        }
      ]
    }
  ],
  "nodes": [
    {
      "children": [
        1
      ],
      "matrix": [
        1.0,
        0.0,
        0.0,
        0.0,
        0.0,
        2.220446049250313e-16,
        -1.0,
        0.0,
        0.0,
        1.0,
        2.220446049250313e-16,
        0.0,
        0.0,
        0.0,
        0.0,
        1.0
      ],
      "name": "Sketchfab_model"
    },
    {
      "children": [
        2
      ],
      "matrix": [
        1.0,
        0.0,
        0.0,
        0.0,
        0.0,
        0.0,
        1.0,
        0.0,
        0.0,
        -1.0,
        0.0,
        0.0,
        0.0,
        0.0,
        0.0,
        1.0
      ],
      "name": "LOW-Symmetry.FBX"
    },
    {
      "children": [
        3
      ],
      "name": "RootNode"
    },
    {
      "children": [
        4
      ],
      "matrix": [
        0.9278709888458252,
        0.0,
        0.0,
        0.0,
        0.0,
        1.7292100855835697e-16,
        -0.7787669897079468,
        0.0,
        0.0,
        0.9278709888458252,
        2.0602874713966939e-16,
        0.0,
        0.0,
        0.0,
        -20.313631057739258,
        1.0
      ],
      "name": "Object008"
    },
    {
      "children": [
        5,
        6,
        7,
        8,
        9,
        10,
        11
      ],
      "matrix": [
        1.0,
        0.0,
        -0.0,
        0.0,
        0.0,
        1.0,
        0.0,
        0.0,
        0.0,
        0.0,
        1.0,
        0.0,
        0.0,
        -26.084362030029297,
        82.825927734375,
        1.0
      ],
      "name": "Object_4"
    },
    {
      "mesh": 0,
      "name": "Object008_LOCK1_0"
    },
    {
      "mesh": 1,
      "name": "Object008_TUBE_0"
    },
    {
      "mesh": 2,
      "name": "Object008_Bottom_0"
    },
    {
      "mesh": 3,
      "name": "Object008_emissive_0"
    },
    {
      "mesh": 4,
      "name": "Object008_pillar_0"
    },
    {
      "mesh": 5,
      "name": "Object008_lock02_0"
    },
    {
      "mesh": 6,
      "name": "Object008_DOOR_0"
    }
  ],
  "samplers": [
    {
      "magFilter": 9729,
      "minFilter": 9987,
      "wrapS": 10497,
      "wrapT": 10497
    }
  ],
  "scene": 0,
  "scenes": [
    {
      "name": "Sketchfab_Scene",
      "nodes": [
        0
      ]
    }
  ],
  "textures": [
    {
      "sampler": 0,
      "source": 0
    },
    {
      "sampler": 0,
      "source": 1
    },
    {
      "sampler": 0,
      "source": 2
    },
    {
      "sampler": 0,
      "source": 3
    },
    {
      "sampler": 0,
      "source": 4
    },
    {
      "sampler": 0,
      "source": 5
    },
    {
      "sampler": 0,
      "source": 6
    },
    {
      "sampler": 0,
      "source": 7
    },
    {
      "sampler": 0,
      "source": 8
    },
    {
      "sampler": 0,
      "source": 9
    },
    {
      "sampler": 0,
      "source": 10
    },
    {
      "sampler": 0,
      "source": 11
    },
    {
      "sampler": 0,
      "source": 12
    },
    {
      "sampler": 0,
      "source": 13
    },
    {
      "sampler": 0,
      "source": 14
    },
    {
      "sampler": 0,
      "source": 15
    },
    {
      "sampler": 0,
      "source": 16
    },
    {
      "sampler": 0,
      "source": 17
    },
    {
      "sampler": 0,
      "source": 18
    },
    {
      "sampler": 0,
      "source": 19
    },
    {
      "sampler": 0,
      "source": 20
    },
    {
      "sampler": 0,
      "source": 21
    },
    {
      "sampler": 0,
      "source": 22
    },
    {
      "sampler": 0,
      "source": 23
    },
    {
      "sampler": 0,
      "source": 24
    }
  ]
}
