{
  "accessors": [
    {
      "bufferView": 2,
      "componentType": 5126,
      "count": 9878,
      "max": [
        1.5074189901351929,
        3.2482728958129883,
        4.401922225952148
      ],
      "min": [
        -3.099666118621826,
        -1.359328031539917,
        -0.7247679829597473
      ],
      "type": "VEC3"
    },
    {
      "bufferView": 2,
      "byteOffset": 118536,
      "componentType": 5126,
      "count": 9878,
      "max": [
        1.0,
        1.0,
        1.0
      ],
      "min": [
        -1.0,
        -1.0,
        -1.0
      ],
      "type": "VEC3"
    },
    {
      "bufferView": 1,
      "componentType": 5126,
      "count": 9878,
      "max": [
        0.9840610027313232,
        1.0
      ],
      "min": [
        0.0,
        0.011979999952018261
      ],
      "type": "VEC2"
    },
    {
      "bufferView": 0,
      "componentType": 5125,
      "count": 26688,
      "type": "SCALAR"
    },
    {
      "bufferView": 2,
      "byteOffset": 237072,
      "componentType": 5126,
      "count": 3904,
      "max": [
        1.5074189901351929,
        3.2482728958129883,
        4.31672477722168
      ],
      "min": [
        -3.099666118621826,
        -1.359328031539917,
        -0.7246289849281311
      ],
      "type": "VEC3"
    },
    {
      "bufferView": 2,
      "byteOffset": 283920,
      "componentType": 5126,
      "count": 3904,
      "max": [
        1.0,
        1.0,
        1.0
      ],
      "min": [
        -1.0,
        -1.0,
        -1.0
      ],
      "type": "VEC3"
    },
    {
      "bufferView": 1,
      "byteOffset": 79024,
      "componentType": 5126,
      "count": 3904,
      "max": [
        0.9900000095367432,
        1.0
      ],
      "min": [
        0.0,
        0.009999999776482582
      ],
      "type": "VEC2"
    },
    {
      "bufferView": 0,
      "byteOffset": 106752,
      "componentType": 5125,
      "count": 12309,
      "type": "SCALAR"
    }
  ],
  "asset": {
    "extras": {
      "author": "juicymalina (https://sketchfab.com/juicymalina)",
      "license": "CC-BY-4.0 (http://creativecommons.org/licenses/by/4.0/)",
      "source": "https://sketchfab.com/3d-models/sci-fi-crate-037d2624e22f4fb4b7066676c6321903",
      "title": "Sci-fi crate"
    },
    "generator": "Sketchfab-12.67.0",
    "version": "2.0"
  },
  "bufferViews": [
    {
      "buffer": 0,
      "byteLength": 155988,
      "name": "floatBufferViews",
      "target": 34963
    },
    {
      "buffer": 0,
      "byteLength": 110256,
      "byteOffset": 155988,
      "byteStride": 8,
      "name": "floatBufferViews",
      "target": 34962
    },
    {
      "buffer": 0,
      "byteLength": 330768,
      "byteOffset": 266244,
      "byteStride": 12,
      "name": "floatBufferViews",
      "target": 34962
    }
  ],
  "buffers": [
    {
      "byteLength": 597012,
      "uri": "scene.bin"
    }
  ],
  "images": [
    {
      "uri": "textures/initialShadingGroup_baseColor.png"
    },
    {
      "uri": "textures/initialShadingGroup_metallicRoughness.png"
    },
    {
      "uri": "textures/initialShadingGroup_emissive.png"
    }
  ],
  "materials": [
    {
      "doubleSided": true,
      "emissiveFactor": [
        1.0,
        1.0,
        1.0
      ],
      "emissiveTexture": {
        "index": 2
      },
      "name": "initialShadingGroup",
      "occlusionTexture": {
        "index": 1
      },
      "pbrMetallicRoughness": {
        "baseColorTexture": {
          "index": 0
        },
        "metallicFactor": 0.8622727365204782,
        "metallicRoughnessTexture": {
          "index": 1
        },
        "roughnessFactor": 0.48651516076290247
      }
    }
  ],
  "meshes": [
    {
      "name": "Object_0",
      "primitives": [
        {
          "attributes": {
            "NORMAL": 1,
            "POSITION": 0,
            "TEXCOORD_0": 2
          },
          "indices": 3,
          "material": 0,
          "mode": 4
        }
      ]
    },
    {
      "name": "Object_1",
      "primitives": [
        {
          "attributes": {
            "NORMAL": 5,
            "POSITION": 4,
            "TEXCOORD_0": 6
          },
          "indices": 7,
          "material": 0,
          "mode": 4
        }
      ]
    }
  ],
  "nodes": [
    {
      "children": [
        1
      ],
      "matrix": [
        1.0,
        0.0,
        0.0,
        0.0,
        0.0,
        3.828568672208042e-16,
        -1.0,
        0.0,
        0.0,
        1.0,
        3.828568672208042e-16,
        0.0,
        0.0,
        -2.2204460492503123e-16,
        -3.33066907387547e-16,
        1.0
      ],
      "name": "Sketchfab_model"
    },
    {
      "children": [
        2,
        3
      ],
      "name": "crate_light.obj.cleaner.materialmerger.gles"
    },
    {
      "mesh": 0,
      "name": "Object_2"
    },
    {
      "mesh": 1,
      "name": "Object_3"
    }
  ],
  "samplers": [
    {
      "magFilter": 9729,
      "minFilter": 9987,
      "wrapS": 10497,
      "wrapT": 10497
    }
  ],
  "scene": 0,
  "scenes": [
    {
      "name": "Sketchfab_Scene",
      "nodes": [
        0
      ]
    }
  ],
  "textures": [
    {
      "sampler": 0,
      "source": 0
    },
    {
      "sampler": 0,
      "source": 1
    },
    {
      "sampler": 0,
      "source": 2
    }
  ]
}
